<?xml version="1.0" encoding="utf-8"?>
<!-- Generator: Adobe Illustrator 23.0.3, SVG Export Plug-In . SVG Version: 6.00 Build 0)  -->
<svg version="1.1" id="Layer_1" xmlns="http://www.w3.org/2000/svg" xmlns:xlink="http://www.w3.org/1999/xlink" x="0px" y="0px"
	 viewBox="0 0 512 512" style="enable-background:new 0 0 512 512;" xml:space="preserve">
<style type="text/css">
	.st0{fill:#ED1C24;}
	.st1{fill:#333333;}
	.st2{fill:#E0E0E0;}
	.st3{fill:#C91B27;}
	.st4{fill:#B2B2B2;}
</style>
<path class="st0" d="M506.6,197.1l-76.7-84.4c-3.9-4.3-9.5-6.8-15.3-6.8h-96.8V406h44.1c0-29.2,23.7-53,53-53s53,23.7,53,53H512V211
	C512,205.9,510.1,200.9,506.6,197.1"/>
<path class="st1" d="M317.8,300.1H0V78.3C0,64.3,11.4,53,25.4,53h267.1c14,0,25.4,11.4,25.4,25.4L317.8,300.1L317.8,300.1z"/>
<path class="st2" d="M368.3,247.2H512v-36.1c0-5.2-1.9-10.1-5.4-13.9l-50.8-55.9h-87.6c-3.5,0-6.3,2.8-6.3,6.3v93.2
	C361.9,244.3,364.8,247.2,368.3,247.2"/>
<path class="st1" d="M467.9,406.1c0,29.3-23.7,53-53,53s-53-23.7-53-53s23.7-53,53-53S467.9,376.8,467.9,406.1"/>
<path class="st1" d="M150.1,406.1c0,29.3-23.7,53-53,53s-53-23.7-53-53s23.7-53,53-53S150.1,376.8,150.1,406.1"/>
<path class="st3" d="M0,300.1V384c0,12.2,9.9,22.1,22.1,22.1h22.1c0-29.3,23.7-53,53-53s53,23.7,53,53h167.7v-106H0z"/>
<path class="st4" d="M114.8,406.1c0,9.8-7.9,17.7-17.7,17.7s-17.7-7.9-17.7-17.7s7.9-17.7,17.7-17.7S114.8,396.3,114.8,406.1"/>
<path class="st4" d="M432.6,406.1c0,9.8-7.9,17.7-17.7,17.7s-17.7-7.9-17.7-17.7s7.9-17.7,17.7-17.7S432.6,396.3,432.6,406.1"/>
<path class="st2" d="M512,333.5c-9.6,0.3-17.2,8-17.2,17.7c0,9.6,7.6,17.4,17.2,17.7V333.5z"/>
</svg>
