<?xml version="1.0" encoding="utf-8"?>
<!-- Generator: Adobe Illustrator 23.0.3, SVG Export Plug-In . SVG Version: 6.00 Build 0)  -->
<svg version="1.1" id="Layer_1" xmlns="http://www.w3.org/2000/svg" xmlns:xlink="http://www.w3.org/1999/xlink" x="0px" y="0px"
	 viewBox="0 0 512 512" style="enable-background:new 0 0 512 512;" xml:space="preserve">
<style type="text/css">
	.st0{fill:#333333;}
	.st1{fill:#ED1C24;}
	.st2{fill:#C91B27;}
	.st3{fill:#FFFFFF;}
</style>
<circle class="st0" cx="256" cy="203.8" r="203.8"/>
<g>
	<path class="st1" d="M400.2,347.9c-33.8,33.8-79.5,55.8-130.2,59.3l48.5,94.8c7.6,14.8,29.2,12.8,34.1-3l11.1-36.4
		c3-10,13.7-15.4,23.6-12.1l31.3,10.7l-0.1-0.2l0.1,0.2l4.7,1.6c15.7,5.4,29.9-11.1,22.4-25.9L400.2,347.9z"/>
	<path class="st1" d="M111.8,347.9l-45.5,89c-7.5,14.8,6.7,31.2,22.4,25.9l4.7-1.6l31.3-10.7c9.9-3.4,20.6,2.1,23.6,12.1l11.1,36.4
		c4.8,15.9,26.5,17.8,34.1,3l48.5-94.8C191.2,403.7,145.6,381.7,111.8,347.9z"/>
</g>
<circle class="st2" cx="256" cy="203.8" r="136.3"/>
<path class="st3" d="M231.7,260.2c-4.4,0-8.9-1.7-12.3-5.1l-29.5-29.5c-6.8-6.8-6.8-17.8,0-24.6c6.8-6.8,17.8-6.8,24.6,0l17.2,17.2
	l65.8-65.8c6.8-6.8,17.8-6.8,24.6,0c6.8,6.8,6.8,17.8,0,24.6L244,255.1C240.6,258.5,236.2,260.2,231.7,260.2z"/>
</svg>
