<?xml version="1.0" encoding="utf-8"?>
<!-- Generator: Adobe Illustrator 23.0.3, SVG Export Plug-In . SVG Version: 6.00 Build 0)  -->
<svg version="1.1" id="Layer_1" xmlns="http://www.w3.org/2000/svg" xmlns:xlink="http://www.w3.org/1999/xlink" x="0px" y="0px"
	 viewBox="0 0 376.2 376.2" style="enable-background:new 0 0 376.2 376.2;" xml:space="preserve">
<style type="text/css">
	.st0{fill:#ED1B24;}
	.st1{fill:#FFFFFF;}
</style>
<title>oferta</title>
<path class="st0" d="M207.5,4.7L207.5,4.7c19.5-10,43.4-3.6,55.4,14.8l0,0c7.5,11.5,20,18.8,33.8,19.4l0,0
	c21.9,1.1,39.4,18.6,40.5,40.5l0,0c0.7,13.7,7.9,26.3,19.5,33.7l0,0c18.4,11.9,24.8,35.8,14.8,55.3l0,0c-6.3,12.2-6.3,26.8,0,39l0,0
	c10,19.5,3.6,43.4-14.8,55.4l0,0c-11.5,7.5-18.8,20-19.5,33.7l0,0c-1.1,21.9-18.6,39.4-40.5,40.5l0,0c-13.7,0.7-26.3,7.9-33.7,19.5
	l0,0c-11.9,18.4-35.9,24.8-55.4,14.8l0,0c-12.2-6.3-26.7-6.3-38.9,0l0,0c-19.5,10-43.4,3.6-55.3-14.8l0,0
	c-7.5-11.5-20-18.8-33.7-19.5l0,0c-21.9-1.1-39.4-18.6-40.5-40.5l0,0c-0.7-13.7-7.9-26.3-19.5-33.7l0,0C1.1,251-5.3,227.1,4.7,207.6
	l0,0c6.3-12.2,6.3-26.8,0-39l0,0c-10-19.5-3.6-43.4,14.8-55.3l0,0c11.5-7.5,18.8-20,19.5-33.7l0,0C40.1,57.6,57.6,40.1,79.5,39l0,0
	c13.7-0.7,26.3-7.9,33.7-19.5l0,0c11.9-18.4,35.8-24.8,55.3-14.8l0,0C180.8,11,195.3,11,207.5,4.7z"/>
<path class="st1" d="M188.1,354C97,354,22.9,279.9,22.9,188.8S97,23.5,188.1,23.5s165.2,74.1,165.2,165.2S279.2,354,188.1,354z
	 M188.1,42.4c-80.7,0-146.3,65.6-146.3,146.3s65.6,146.3,146.3,146.3s146.3-65.6,146.3-146.3S268.8,42.4,188.1,42.4L188.1,42.4z"/>
<path class="st1" d="M55.9,168.4c0-13.7,7.2-21.3,20.2-21.3s20.2,7.6,20.2,21.3v44.1c0,13.7-7.2,21.3-20.2,21.3s-20.2-7.6-20.2-21.3
	V168.4z M69.2,213.4c0,6.2,2.7,8.4,6.9,8.4s6.9-2.2,6.9-8.4v-45.9c0-6.2-2.7-8.4-6.9-8.4s-6.9,2.2-6.9,8.4L69.2,213.4z"/>
<path class="st1" d="M118.3,185.7h17.2v12.1h-17.2v35H105V148h35.3v12.1h-21.9V185.7z"/>
<path class="st1" d="M160,183.8h18.3v12.1H160v24.8h23v12.1h-36.3V148H183v12.1h-23L160,183.8z"/>
<path class="st1" d="M219.1,232.8c-0.1-0.6-0.4-1.1-0.5-1.6c-0.5-1.5-0.7-3-0.6-4.6c-0.1-1.1-0.1-2.6-0.1-4.2v-13.3
	c0-7.9-2.5-10.8-8.7-10.8h-4.6v34.5h-13.3V148h20.1c13.9,0,19.8,6.4,19.8,19.5v6.7c0,8.7-2.9,14.4-8.7,17.2
	c6.8,2.8,8.9,9.2,8.9,18.1v13.1c0,4.2,0.1,7,1.5,10.3L219.1,232.8z M204.6,160.1v26h5.2c5,0,8-2.2,8-9v-8.4c0-6.2-2.1-8.7-6.8-8.7
	L204.6,160.1z"/>
<path class="st1" d="M236.1,148h41.2v12.1h-13.9v72.7H250v-72.7h-13.9V148z"/>
<path class="st1" d="M321.7,232.8h-13.4l-2.3-15.4h-16.4l-2.3,15.4H275l13.5-84.9H308L321.7,232.8z M291.2,206h12.8l-6.4-42.9
	L291.2,206z"/>
</svg>
